<mxfile host="app.diagrams.net" modified="2024-04-19T08:44:20.912Z" agent="Mozilla/5.0 (Macintosh; Intel Mac OS X 10_15_7) AppleWebKit/537.36 (KHTML, like Gecko) Chrome/116.0.0.0 Safari/537.36" etag="5QfSFpdE_llYb-bQ85u4" version="24.2.5" type="github">
  <diagram name="第 1 页" id="on_Aq-07e4hKdJTaEOKL">
    <mxGraphModel dx="912" dy="584" grid="1" gridSize="10" guides="1" tooltips="1" connect="1" arrows="1" fold="1" page="1" pageScale="1" pageWidth="827" pageHeight="1169" math="0" shadow="0">
      <root>
        <mxCell id="0" />
        <mxCell id="1" parent="0" />
        <mxCell id="bGtMfSY3UX-VMbsvm5lV-1" value="" style="rounded=0;whiteSpace=wrap;html=1;" parent="1" vertex="1">
          <mxGeometry x="50" y="120" width="270" height="130" as="geometry" />
        </mxCell>
        <mxCell id="o4l-gXG-aYiKJ9zFRTZ0-1" value="" style="ellipse;whiteSpace=wrap;html=1;" vertex="1" parent="1">
          <mxGeometry x="120" y="150" width="120" height="80" as="geometry" />
        </mxCell>
      </root>
    </mxGraphModel>
  </diagram>
</mxfile>
